<svg xmlns="http://www.w3.org/2000/svg" viewBox="0 0 312.2 360" width="546.35" height="630"><defs/><path d="m 0,0 h 312.19673 v 207.89913 c -1.854,86.95626 -70.36334,153.55016 -156.6068,152.07689 C 69.49172,361.10454 1.26811,293.15228 0,207.90061 V 0.00149 Z" style="fill:#000000"/><path d="M 156.76736,2.77201 H 309.80322 V 207.46889 C 307.98609,292.69498 241.1357,358.04427 156.76736,357.20877 Z" style="fill:#00923f"/><path d="m 109.87229,60.2141 c -0.2569,-3.54001 -1.28016,-7.33677 0.95086,-10.47479 1.2473,-1.74355 3.14902,-1.87095 6.68012,-1.1309 3.83422,0.80369 7.38509,3.42792 9.41407,4.50173 1.40548,5.41735 4.00771,7.96904 9.08254,9.65341 2.13885,2.4616 4.4051,4.56313 5.94661,7.4728 1.93458,3.64096 0.44361,6.04769 -1.90396,5.91806 -9.1154,-0.50502 -13.53581,-8.39943 -21.71358,-7.84833 1.69746,-1.86649 3.55087,-2.67463 9.18572,0.41954 4.37433,3.30705 9.84223,3.89116 9.12195,1.30438 -0.91132,-3.27865 -6.89093,-7.57166 -12.05793,-8.31617 -2.20694,-1.41633 -4.24261,-3.08093 -6.46485,-4.47749 -2.95368,-1.86441 -5.1847,-2.60655 -8.24155,2.97776 z" style="fill:#fff500"/><polygon points="188.504,69.6929 170.895,87.7832 189.329,106.219 164.223,99.5469 157.551,124.309 150.878,99.5469 125.773,106.219 143.932,87.7832 125.222,69.1449 151.155,76.0903 157.551,50.9853 164.223,76.0903 " style="fill:#fff500" transform="matrix(1.4866511,0,0,1.4866503,0,-40.792789)"/><polygon points="188.504,162.332 170.895,180.422 189.329,198.856 164.223,192.184 157.551,216.947 150.878,192.184 125.773,198.856 143.932,180.422 125.222,161.784 151.155,168.731 157.551,143.623 164.223,168.731 " style="fill:#fff500" transform="matrix(1.4866511,0,0,1.4866503,0,-40.792789)"/><path d="m 56.77639,106.61676 c 6.84916,9.16372 17.08014,17.31948 27.52847,23.77556 10.99081,6.79429 28.44202,12.49723 39.76658,14.80733 -0.30967,-1.07158 -0.58202,-2.14761 -0.7796,-3.21265 C 106.32811,138.76558 87.9809,130.56358 74.13766,119.95499 66.32872,113.97093 60.21517,107.34582 55.21288,98.89362 52.31956,94.01131 51.18406,88.66189 52.64945,83.26089 c 0.90047,-3.32162 3.01761,-7.61209 5.90349,-9.59439 3.24774,-2.27948 8.6367,-1.55697 7.41795,0.34683 -0.96841,0.63689 -1.74147,1.77878 -1.81387,2.89436 -0.10332,1.57883 1.47342,2.70541 3.46078,2.81512 1.98735,0.11433 3.60141,-1.03203 3.79467,-2.78657 0.13395,-1.22753 -0.42176,-2.55169 -0.56879,-2.72295 3.58595,0.99249 7.99328,1.96312 8.12946,-2.79104 0.0659,-2.04013 -1.69315,-3.73536 -3.93309,-3.82545 -2.28379,-0.14703 -3.19065,1.08704 -3.88016,1.5262 0.43485,-0.63896 0.68505,-2.08607 0.68505,-2.91621 0,-2.20248 -1.80286,-4.00103 -4.01187,-4.00103 -2.2114,0 -4.01426,1.79855 -4.01426,4.00103 0,1.48442 0.81468,2.78226 2.01813,3.474 0.21289,0.56002 0.46547,1.61837 -0.55571,1.48011 -6.2038,-1.12168 -9.73786,2.28275 -11.39548,4.78939 -2.78539,4.21228 -3.67441,10.8081 -3.35463,15.4463 0.28975,4.92111 3.41469,11.4255 6.24527,15.22017 z" style="fill:#fff500"/><path d="m 73.15825,268.27586 c -1.41202,-3.44769 2.55377,-7.16327 4.55867,-6.87992 0.65011,0.91355 0.5227,2.36288 0.0375,4.05588 -2.4442,0.13841 -3.06339,0.99041 -4.59613,2.82404 z m 2.47483,17.05589 c -1.55474,-1.9368 -2.30803,-5.32295 0.52256,-7.52988 0.71151,-0.55333 1.60305,-0.78168 2.644,-0.65442 1.01003,0.14272 1.49766,1.10458 1.42511,2.71209 -3.3246,0.0351 -4.74762,3.14234 -4.59167,5.47221 z m 15.27935,-0.45669 c -2.97984,1.09581 -3.44977,7.52334 -0.0263,8.55537 0.62365,-5.41958 1.82486,-5.66993 3.69358,-5.50075 1.38125,-2.51006 -0.58187,-4.18998 -3.66727,-3.05462 z m 36.61101,-19.82731 c 0.0616,-0.88485 -0.93331,-1.84672 -1.20552,-1.85549 1.06935,-3.89785 -0.98387,-4.61159 1.53497,-4.2426 1.31093,0.10763 2.35619,5.03305 -0.32945,6.09809 z m -6.38145,-35.05611 c -0.50501,-0.54902 -0.99471,-0.45461 -2.61977,0.1558 -0.50725,-1.10666 -0.95518,-2.83935 -1.19676,-3.91316 -0.4787,-0.34252 -0.99917,0.71374 -1.36593,1.5262 -1.59652,3.52455 -2.7955,7.35862 -4.41387,11.31579 -1.26053,3.08747 -5.69194,13.90255 -7.81101,17.92112 -1.6536,3.14471 -3.89116,5.68763 -7.68361,5.98183 -2.79981,0.22835 -4.2316,0.0461 -6.19264,-1.05626 -1.98513,-1.11989 -1.69523,-0.62811 -3.50255,-0.96186 -0.0549,-1.42303 -1.29339,-1.41857 -1.83141,-1.67992 -0.92009,-0.44793 -5.18024,0.93332 -5.72926,1.2803 1.02118,2.13231 -0.74882,4.59836 -0.0571,5.93129 0.91786,1.33293 2.0379,1.69969 3.73536,1.72823 1.8094,0.0241 2.03775,-0.45461 2.20024,-2.38042 0.3953,-0.21081 0.57548,0.16249 0.95309,0.57533 0.0923,-0.31844 0.1845,-0.64565 0.31398,-0.92886 0.14941,-0.0132 0.30967,-0.0352 0.46993,-0.0528 0.26136,0.26789 0.30967,0.95963 0.39753,1.63383 1.60306,0.0219 5.00021,1.11558 9.86869,-1.93473 0.19312,0.19103 0.3843,0.37553 0.58188,0.56448 -2.70541,1.91258 -4.24038,4.00979 -9.26689,5.18901 -0.80161,0.18657 -0.94433,0.0879 -1.10905,0.89585 -2.88767,-0.47647 -7.10173,0.14495 -6.79429,3.88685 2.42874,0.79937 2.43097,5.11883 0.89601,6.7262 4.69499,1.41648 7.86156,-1.39433 6.67788,-5.80611 0.19104,-0.0263 0.38207,-0.0263 0.57534,-0.0175 0.32067,1.83587 3.87585,-1.3197 6.07401,-3.40145 1.38348,-1.31316 5.04852,-3.51578 5.42181,-4.79385 1.31762,-0.0944 1.09581,0.85214 0.63897,1.81832 -1.19453,2.54514 -3.53318,4.03833 -5.12969,6.30012 0.45016,-0.0351 1.19898,-0.50278 1.75677,-0.33152 -0.0198,0.19758 -0.0242,0.38653 0,0.60165 -0.71805,0.34252 -3.90439,1.49988 -5.68748,4.30192 -1.05403,2.41551 -1.26707,2.78881 -0.4063,2.76472 1.10235,-0.0198 3.14679,-0.28989 4.39632,0.26344 1.82487,0.81037 1.90173,1.89949 1.67323,2.86135 2.72741,0.47439 6.54617,-6.53293 4.89272,-8.2567 0.19311,-2.41343 1.74577,-4.46219 2.86344,-6.5594 2.37388,-4.46873 5.35595,-3.82976 9.37675,-6.18373 1.20553,-0.70273 2.34534,-1.4077 3.60795,-1.781 -2.19816,1.72169 -1.77877,2.27502 -1.17044,2.56269 2.97985,1.42956 6.04993,0.033 7.70561,-2.75596 0.35799,-0.60819 0.83892,-1.14189 1.06281,-1.93026 0.61265,-5.20432 -3.94825,-5.15823 -5.53599,-4.11074 -2.4112,1.59636 -2.02467,4.15028 -6.20573,3.30274 -2.52983,-0.4897 -2.60446,-2.74064 -2.30133,-4.86402 1.17475,-8.14922 6.68889,-19.95025 9.87076,-26.38879 z" style="fill:#fff500"/><path d="m 48.89506,116.91999 c 1.53497,-2.05752 5.6194,-1.57451 7.42018,-7.60897 -1.17267,-1.78532 -1.99613,-2.67032 -2.46829,-3.74413 -1.08481,1.60083 -1.20776,3.10517 -1.6096,4.53027 -0.35352,0.43485 -0.74659,0.63911 -0.78837,-0.58856 -0.0636,-1.84449 0.0901,-3.02593 0.65442,-4.93866 0.23713,-0.80591 0.29198,-1.52619 -0.35144,-2.633 -0.28098,-0.48747 -0.46993,-0.91132 -0.74883,-1.39433 -0.19311,1.65137 -0.83445,6.34844 -2.23101,9.87299 -0.99918,2.52092 -0.79492,3.94617 0.12294,6.50439 z m 8.97923,6.11356 c 2.79773,-0.85869 4.65544,-2.27934 6.48031,-4.8004 -0.10094,-1.13743 -1.79632,-2.30356 -2.61755,-3.31805 -0.67196,0.73559 -0.97509,2.00489 -1.40771,3.38614 -0.46324,0.99695 -1.32847,0.73128 -1.08912,-0.64996 0.30967,-1.75247 0.59065,-3.50478 0.0879,-5.25501 -0.43484,-0.67851 -0.89377,-1.28016 -1.40979,-1.71931 -2.27071,2.4045 -1.78978,10.05525 -0.044,12.35659 z m 8.94414,7.35431 c 3.05239,-2.14331 5.05952,-3.53332 5.93575,-5.16492 -0.2789,-1.01449 -1.85341,-1.63606 -2.67687,-2.65501 -0.68073,0.71597 -1.05849,1.72392 -1.49557,3.08316 -0.26343,0.63242 -1.18798,0.99041 -0.97048,-0.49624 0.15149,-1.66014 0.51824,-2.27502 0.39084,-3.95717 -0.0571,-0.74005 -2.17408,-2.11253 -2.64401,-2.68563 -4.15906,4.61159 0.70274,11.43442 1.46034,11.87581 z m 7.47726,5.83896 c 2.67463,-0.77513 5.45913,-2.26847 6.87115,-5.37572 -0.33152,-1.1923 -1.43611,-1.20776 -2.3782,-1.50866 -0.88946,0.18227 -1.14635,1.69538 -1.6756,2.81096 -0.62573,0.61042 -1.18129,1.17044 -0.99903,-0.31844 0.24366,-1.75023 0.66974,-2.38265 0.0571,-4.13497 -0.46993,-0.57533 -1.66238,-2.23547 -2.25317,-2.26625 -3.72867,3.99657 -0.71359,10.12112 0.37776,10.79308 z m 9.34167,4.60936 c 2.6944,-1.34839 4.65752,-3.13579 6.14864,-5.28563 -0.011,-0.71374 -1.85564,-1.78978 -2.64832,-1.72169 -0.59288,0.92663 -0.80815,1.57005 -1.31539,2.75149 -0.6742,0.88054 -1.2473,1.27807 -1.1199,-0.25689 0.0285,-1.75232 0.11849,-1.93458 0.14926,-3.68704 -0.47647,-0.59511 -1.87749,-1.5372 -2.07298,-1.38556 -1.93904,1.46019 -1.1639,7.73846 0.85869,9.58532 z m -9.8116,12.33682 c -2.51884,-5.13637 -1.06281,-9.28234 1.1749,-13.85647 1.01226,-2.07076 2.84812,-3.43669 3.91539,-3.5464 -0.20204,2.08829 -2.1323,6.28912 -1.30454,8.21062 0.75983,-1.5482 2.20694,-3.06339 2.67256,-6.06301 0.59064,0.24589 1.55905,2.38474 1.90603,3.13579 0.29213,0.62142 0.20204,1.31316 -0.0351,2.04221 -1.70623,5.22855 -4.33924,7.2116 -8.32926,10.07726 z m -9.05832,-3.19288 c -1.17267,-4.30623 -0.68728,-9.74127 0.3733,-14.07174 0.63896,-3.1841 2.90313,-4.51703 4.75862,-4.8267 -0.44362,1.92149 -1.82263,5.38227 -1.02326,7.2159 0.94209,-0.54233 1.85341,-4.326 2.46383,-5.4899 0.63688,1.22544 0.81914,2.49029 2.05767,3.83199 0.59942,0.64996 0.33598,1.76331 -0.0726,2.90744 -1.80509,5.04406 -4.42264,7.53865 -8.55761,10.43301 z m -10.94903,-5.93783 c 0.2942,-1.40548 0.23503,-3.62772 -0.52479,-7.34776 2.84812,-3.44755 3.64304,-6.06524 4.0318,-9.20326 0.32275,-2.60655 3.45854,-3.87139 4.46649,-4.21837 -0.44362,1.92149 -1.95004,6.23218 -1.15067,8.0679 0.94209,-0.54456 1.55474,-3.77044 2.16516,-4.93642 0.4787,0.99918 0.55779,2.28156 2.26625,4.04056 0.38876,0.39962 0.28767,0.84546 0.022,1.47996 -1.84463,4.41179 -5.84997,9.89069 -11.27624,12.11739 z m -5.34719,-7.1325 c -2.51214,-5.63708 -1.54805,-11.35087 0.011,-16.98126 0.69828,-2.51229 2.75372,-2.93391 4.39186,-2.95145 -0.18434,1.64037 -1.39001,7.61552 -1.20329,9.41184 1.2473,-1.37248 2.35411,-5.94883 2.91621,-7.15882 0.88709,1.24522 2.16739,5.30333 1.63591,8.30517 -0.70705,3.99656 -4.16128,7.67483 -7.75169,9.37452 z m -10.04203,-4.9168 c 1.65137,-4.55881 2.45728,-8.32702 3.34214,-12.45976 1.1859,-0.87623 1.97858,-1.78532 3.07885,-2.91844 -0.18449,1.63814 -1.02772,4.71476 -0.84114,6.51316 1.2473,-1.37248 2.14761,-5.68971 2.70763,-6.89969 1.10235,0.9574 0.5908,5.41958 -0.67196,8.80364 -1.79632,4.80248 -4.14821,7.18513 -7.61552,6.96109 z m -1.54597,-9.6161 c 0.82123,-0.35575 1.73923,-0.74213 2.56046,-1.10012 -0.73337,6.1421 -2.4002,11.588 -3.13148,12.35882 2.88336,0.46993 5.59754,-0.43692 8.05705,-2.42874 -1.83363,10.04426 -4.59836,18.77982 -7.82201,27.97207 -1.09804,4.05811 -4.20752,10.00486 -3.44993,10.22652 1.8161,0.53148 6.94802,-14.33071 7.94288,-17.53236 1.76763,-5.67663 4.2096,-11.62769 5.51399,-17.34594 0.38876,1.65791 1.17044,3.496 1.84464,4.22506 1.27584,-0.57534 1.40756,-0.42608 2.66363,-1.28462 1.79186,1.78086 0.41061,7.23568 -0.0834,9.28443 -1.5482,6.37714 -4.47973,14.0322 -6.51763,18.7315 -2.01144,5.91374 -6.45608,14.59653 -11.38819,18.82159 -7.16759,6.13109 -18.44384,7.02695 -25.90356,2.85243 4.63791,-2.69871 8.36881,-6.26712 11.48275,-10.60636 2.56269,-3.59695 4.87502,-7.37408 6.54617,-11.44527 3.48709,-8.52252 5.79511,-18.17817 8.14908,-27.07621 1.37916,-5.21101 2.34534,-10.89626 3.53555,-15.6528 z m 18.39552,82.20775 c -0.27666,-0.2722 7.56498,-34.19979 8.0416,-36.39127 1.24075,-6.10924 3.27851,-14.42749 4.49949,-18.03321 -1.12435,0.45239 -2.36288,1.22975 -3.36206,1.42079 -3.18411,-6.04992 -1.55905,-9.97617 -1.77432,-12.45991 -1.48665,2.14984 -5.32949,5.22423 -6.24081,5.8632 -4.20098,15.43767 -5.29887,33.02281 -9.22749,49.0709 -1.67323,6.83592 -3.09848,13.61712 -6.21019,19.23205 -3.24343,5.86112 -9.13726,10.15412 -15.8306,11.23016 2.26179,2.40897 8.15145,6.2585 14.56353,6.52194 7.80893,-0.14926 16.52249,-5.16269 19.79654,-12.56086 6.5044,-14.66239 8.94191,-31.6832 12.92331,-47.22389 1.53705,-5.99507 3.00408,-11.84504 4.53012,-17.76533 -1.11766,0.45462 -2.1103,1.23199 -3.23242,1.47565 -2.52969,-2.14538 -2.45283,-6.82937 -2.46383,-7.40471 -4.13051,10.769 -5.83689,22.24282 -8.50706,33.41797 -1.8271,7.64644 -3.60796,16.86501 -7.50581,23.60652 z M 105.9065,167.0931 c 0.69828,-0.7399 3.78575,-3.25219 4.40286,-4.315 0.0856,2.33211 -0.23712,5.11215 -0.3733,7.70561 0.0681,3.21042 -0.0856,6.57025 -0.0175,9.77859 -0.53148,1.52173 -0.14063,3.77698 0.37107,4.09542 1.65568,-5.24386 1.89726,-15.14986 2.62632,-20.35432 0.91578,1.51088 2.00058,3.50255 3.01731,3.82099 0.26566,8.30517 0.20203,16.99226 -2.31234,25.00977 -1.89072,6.01915 -5.27256,10.22429 -6.72844,12.6114 -3.08316,-8.3184 -4.21629,-25.49947 -2.67032,-39.57998 0.52048,0.53147 1.0915,0.91354 1.68438,1.22752 z m -23.03566,-8.99453 c -0.78614,-1.35493 -1.35479,-3.47846 -1.34825,-6.77451 0,-1.70623 0.0944,-2.68133 0.72252,-4.2383 0.50724,-1.25161 1.16167,-2.72726 1.49096,-3.38391 0.87846,-1.75454 2.11253,-2.9513 3.07439,-3.05016 -0.20426,2.08622 -1.91926,7.30808 -1.09358,9.22957 0.61696,-1.59205 1.54151,-4.35678 2.97108,-7.03795 0.15595,0.57965 1.20344,2.26402 1.58328,3.25428 0.51393,1.32862 0.29644,2.31679 -0.24158,3.40591 -1.66446,3.36206 -4.09097,6.22773 -7.15882,8.59507 z m -1.86218,-2.9229 c 0.15164,2.01813 0.84546,3.34452 1.68869,4.19206 1.64706,-0.56865 3.59918,-2.45714 5.57345,-4.34132 0.73337,2.57146 1.74355,5.74903 2.81289,7.11273 -1.62937,17.10867 -3.68481,34.5664 -7.34093,51.66853 -2.13899,10.01363 -6.23219,25.55656 -6.55063,25.20958 5.31641,-10.59105 8.19754,-25.89463 10.3013,-37.56186 2.31665,-12.86161 3.40369,-26.12966 6.53948,-38.77392 1.74801,-1.05627 4.27769,-3.7309 5.89175,-5.18677 0.95086,4.16351 1.25607,7.24221 0.8016,11.30686 -1.57243,14.08274 -4.22952,27.20139 -6.74389,41.09518 -2.99308,16.56842 -8.41267,40.35943 -23.71402,49.20694 -8.6587,4.47318 -19.24975,5.99714 -27.88422,0.24366 18.47015,-4.36332 23.35172,-17.59837 26.29216,-32.41002 3.26097,-12.66626 5.26364,-27.31333 7.38048,-42.66077 1.42972,-10.36715 3.62996,-26.26584 4.95189,-29.10088 z m 11.28294,-8.98799 c 1.89726,-1.30216 5.67871,-4.0932 5.93783,-6.58348 0.16249,-0.82346 -0.54248,-1.0475 -1.2253,-1.30216 -0.5337,-0.19981 -1.02772,-0.51602 -1.24299,-0.53579 -0.25912,0.52479 -0.78391,3.24551 -1.70623,4.13705 -0.6895,0.80814 -0.87177,0.52048 -1.20998,-0.70928 -0.011,-1.99166 1.32639,-2.41774 0.81037,-4.13928 -0.47008,-0.5731 -1.58997,-0.9574 -2.31248,-0.78406 -2.79758,2.23117 -1.06712,7.58489 0.94878,9.917 z m -0.0418,15.72965 c 0.0198,-2.67255 -1.84895,-4.05811 -1.21652,-9.61833 0.18449,-1.51742 0.77068,-3.16433 1.38347,-4.5325 0.64551,-1.40533 2.90522,-2.1937 4.32601,-3.24996 -0.20204,2.08621 -2.47275,8.33148 -1.64706,10.25298 1.34393,-1.13982 2.21139,-7.06219 3.78144,-9.63811 0.51617,1.92373 0.77737,2.58469 1.52189,4.19652 0.47647,1.01449 0.0308,3.18188 -1.20344,5.52053 -2.49461,3.89353 -4.00534,4.75431 -6.94579,7.06887 z m 10.29685,-11.93289 c 3.78575,-1.63591 6.08724,-3.83631 6.50885,-6.70197 -0.49193,-0.6522 -1.90172,-1.38571 -2.79996,-1.17921 -0.42369,0.10094 -0.36452,1.12435 -1.55474,3.11602 -0.47424,0.94432 -1.22961,1.09135 -1.29992,-0.71152 0.11863,-2.14107 0.11863,-0.81691 0.14717,-2.56699 -0.37998,-0.7576 -1.93249,-1.69092 -2.61323,-2.14777 -0.92009,-0.45224 -1.0695,0.46562 -1.2583,1.2803 -0.44585,2.82405 1.11989,6.76129 2.87013,8.91114 z m 3.22796,15.54084 c -0.98149,-1.42079 -3.04347,-3.93085 -3.91747,-6.69542 -0.61934,-1.95881 -0.54025,-5.09029 0.31844,-6.91293 0.21958,-1.67114 3.3246,-2.00712 4.81348,-3.53763 -0.31621,2.14107 -1.86218,7.79332 -0.92232,9.6555 1.77878,-0.76637 1.88849,-6.37045 3.09848,-9.25366 0.69619,2.58677 1.89072,3.02593 2.53414,4.33255 1.10889,0.86746 0.37984,3.15779 -0.76637,5.93574 -1.13966,2.37166 -1.68645,3.56618 -5.15838,6.47585 z m 7.08642,-13.19119 c 3.38615,-0.66974 5.33619,-2.44406 6.50886,-5.49645 0.10971,-1.19452 -1.85564,-1.18798 -2.73841,-1.53719 -0.92455,0.49639 -0.66543,1.01895 -1.0145,2.41788 -0.11417,0.48956 -0.85645,0.43247 -1.18144,-0.34698 0.0308,-1.75246 -0.24158,-1.9655 -0.66319,-2.36065 -0.46993,-0.57325 -2.84382,-1.726 -3.45647,-1.42079 -0.26566,0.13171 -0.27666,0.49624 -0.2832,0.92663 -0.0769,4.1702 0.66973,5.00243 2.82835,7.81755 z m 3.85608,14.03219 c -1.98067,-1.32847 -4.58513,-8.3688 -3.0634,-12.10624 0.13395,-1.4581 2.72964,-1.49988 4.43156,-2.94476 -0.24158,2.14108 -1.24076,7.0665 -0.45462,8.93091 1.45588,-0.68074 0.78614,-5.85874 2.0773,-8.7421 0.56225,2.10153 1.8271,2.81527 2.62201,3.70889 0.72905,0.81692 1.26484,1.08927 1.07827,2.37389 -0.49625,3.36637 -3.73536,7.34554 -6.69112,8.77941 z m 7.9625,-11.17084 c 2.10822,-0.73336 2.77141,-1.52173 4.07134,-3.29382 -0.73336,-1.16836 -1.52619,-2.21362 -2.49906,-2.74718 -0.52702,1.12212 -0.0636,1.03426 -0.59287,2.14984 -0.2569,0.4457 -0.57965,0.79492 -0.99918,-0.28989 0.23935,-1.11782 0.32944,-1.90173 0.0879,-3.80122 -0.0439,-0.91563 -3.39492,-1.16821 -3.87585,-0.7576 -0.78837,5.09907 0.29644,6.48685 3.80776,8.73987 z m 4.78508,13.12088 c -2.96245,-2.27725 -5.34941,-6.83383 -4.49295,-10.6679 0.57756,-2.40466 2.37596,-1.08927 3.87584,-3.75291 -0.24158,2.14539 -0.30297,7.3674 0.61042,8.63224 1.15959,-0.59511 -0.4897,-5.64362 0.79938,-8.52906 0.0944,1.93027 2.08175,5.48113 3.74413,7.23567 -0.99264,3.03039 -3.6475,6.34191 -4.53682,7.08196 z m -11.84281,-0.59957 c 0,2.7011 -0.55125,4.92557 0.23489,7.53435 0.65012,2.13676 1.81178,3.80344 2.74287,5.38673 1.83349,-1.75678 3.18188,-3.85831 3.84508,-5.78411 0.71805,-2.05991 0.52479,-5.37796 0.86731,-7.97142 -0.77737,-0.62142 -1.25161,-2.38043 -1.85995,-3.84062 -1.01226,3.25651 -1.76108,6.33314 -2.04652,9.18126 -0.98387,-1.74577 -0.16695,-6.29359 0.15803,-8.17331 -1.50196,0.88932 -2.62855,2.43306 -3.94171,3.66712 z M 55.57516,79.74244 c -0.20427,-2.09484 1.87095,-4.42472 3.5421,-5.44813 1.89726,-1.16821 5.07914,-1.65568 5.38004,-0.5841 -1.76332,1.3527 -2.13662,2.92944 -1.83364,4.35231 0.88947,4.15489 8.13169,4.76962 9.90377,1.19691 0.37107,-0.75106 0.74229,-1.96759 0.11195,-3.03039 4.86417,2.00921 7.86602,-1.13313 7.97365,-4.45787 0.10541,-3.30051 -2.7121,-6.84038 -7.339,-5.57553 0.0505,-4.69708 -4.45549,-6.49994 -7.88118,-4.82671 -3.23466,1.57897 -4.12843,5.50744 -2.15862,8.41488 -7.07988,-0.0966 -10.88318,4.10866 -12.01407,10.41771 -0.0177,-1.70638 -0.0901,-6.1641 0.0592,-7.94719 0.27013,-3.23911 1.0805,-5.94006 2.51438,-8.26786 3.93962,-6.40122 12.96493,-8.20408 19.53742,-5.15169 4.79816,2.23117 8.32926,6.83607 8.51598,12.68173 0.24158,7.30807 -5.97738,15.2004 -15.43545,15.06199 -3.441,-0.0263 -10.36047,-1.63383 -10.87649,-6.83606 z m 65.62836,57.33861 c -3.55755,2.40451 -9.18141,-2.03567 -9.86869,-4.60058 -0.63465,-1.52828 -0.74228,-1.01449 -1.20344,-0.6522 -4.99574,3.98348 -13.14274,-0.84754 -13.66976,-6.95009 -5.5513,3.65181 -12.98902,-1.00364 -13.51172,-7.45094 -0.0746,-0.81245 -0.54456,-0.37107 -1.42734,-0.10971 -5.27255,1.56351 -10.56696,-3.90439 -9.92354,-8.91128 0.24589,-1.63368 -0.007,-1.16821 -1.03872,-1.08912 -9.41184,0.73782 -10.94681,-8.48952 -9.51071,-12.97147 -4.90357,-0.022 -6.052,-2.83728 -7.1939,-6.78998 -0.38653,-1.31093 -0.75314,-1.27808 -0.93109,-0.40838 -0.0593,1.17921 0.10986,2.62854 0.48316,4.09096 0.96841,3.81876 3.10725,7.79347 5.40636,11.10498 8.89151,12.88376 22.42732,22.55903 36.51884,29.10965 8.59938,3.99434 17.45774,6.7042 26.85427,9.04062 -0.4063,-1.13966 -0.7466,-2.28156 -0.98372,-3.41246 z M 55.91337,83.30653 c -0.78183,-2.18939 -2.00058,-0.16695 -1.97204,0.60834 0.33375,5.18678 4.06034,8.47852 7.96696,8.55538 1.0585,-0.31621 2.56046,0.91577 1.78086,2.20693 -2.75149,3.30497 -0.62796,11.93721 7.94065,9.95862 1.12644,0.0659 2.44852,-1.58759 2.37597,1.11559 -2.41774,6.09601 4.29969,12.03607 8.57961,8.77718 1.35717,-0.90255 2.12576,-0.0571 2.44852,0.91801 0.5731,6.44507 4.53027,9.17679 10.32538,7.49911 1.31316,-1.06058 2.70541,-1.43388 3.17757,0.53578 0.14703,5.57331 5.03975,9.53493 11.14438,5.88521 1.03873,-0.69174 2.36066,-1.85772 2.84605,0.4787 1.3747,5.7688 7.5452,7.52111 8.43689,4.51496 -1.42956,-4.22729 -2.36288,-10.50111 -2.36511,-12.9013 C 108.44062,119.87575 88.34095,109.21008 80.84615,94.37197 89.50485,88.84475 94.31179,82.77298 93.6816,72.17524 92.20372,63.84821 86.85653,56.12938 77.31074,52.47534 72.09973,50.48144 66.20799,50.98646 60.9662,52.68615 50.82531,55.98443 44.81493,64.1842 42.72217,75.6207 c -1.3527,7.41794 -2.0049,16.26321 -4.21614,23.264 -2.65932,8.41919 -7.22691,17.01203 -16.47849,23.83041 2.43305,-0.002 17.43589,1.05849 23.97537,-9.49093 4.09335,-6.60979 3.93086,-27.91275 3.25666,-36.90951 -0.82346,-6.69989 1.93027,-14.77002 7.84833,-18.36266 10.61082,-6.39453 26.23285,0.49639 26.34494,13.09888 0.84754,8.46097 -6.48254,18.09253 -17.09336,17.3327 -2.89868,-0.1494 -9.34598,-2.00266 -10.44611,-5.07706 z m 78.5493,-29.52903 c 0.1274,-0.31175 0.1054,-0.84977 0.25689,-1.15498 0.14272,-0.28767 0.86523,-0.89155 0.60165,-1.25399 -0.26344,-0.35784 -1.16167,-0.28098 -1.3307,0.13186 -0.2679,0.64997 0.32944,1.59206 0.47216,2.27711 z m -2.08176,-3.66935 c 0.11194,-0.69174 0.75105,-0.14718 1.19898,0.57533 -0.50293,0.32498 -0.76205,1.29562 -0.68073,2.15862 0.1164,1.18798 0.86077,2.07521 1.96966,2.25747 0.52925,0.0834 1.76778,0.0812 2.28602,-0.56879 0.33376,-0.42161 0.93778,-0.24158 1.24953,0 0.48525,0.37553 0.15372,0.62796 -0.77737,0.83669 -0.94863,1.02326 -2.30787,1.28684 -3.59918,0.75537 -2.34311,-0.9641 -2.25525,-3.9988 -1.64691,-6.01469 z m 21.96616,84.45392 c -2.52314,-1.6423 -6.78195,-2.78836 -9.25604,-8.49159 -0.38861,-3.37738 -0.37107,-6.13541 -2.02244,-7.38717 0.55556,-0.90254 2.77781,-2.39128 2.79327,-3.13133 -0.81468,-0.34476 -2.21347,2.05975 -3.73536,1.98066 -4.1152,1.25607 -5.4679,4.15697 -5.53153,7.7847 -2.70333,-2.06199 -5.91152,-6.05201 -4.00994,-11.29825 0.23281,-0.64342 0.25258,-1.26038 -0.47871,-0.95086 -1.74785,0.58857 -5.32072,-0.0153 -8.57738,-1.10443 -1.97412,-0.46562 -4.55881,-0.93109 -9.03631,0.60388 1.38348,-3.34229 7.51235,-5.23747 10.88318,-5.64139 4.96066,-0.6018 10.29015,-2.25317 13.1472,-4.79817 4.97166,-4.45564 6.04323,-9.74573 6.19041,-15.98 1.12867,1.19244 1.54151,4.01202 1.50197,5.75779 1.03872,2.27503 1.09135,-0.77514 0.48093,-4.58958 -1.06073,-4.09766 -4.48419,-8.29848 -5.02875,-9.45361 -0.57102,-1.20776 2.87013,-1.77655 3.50478,-3.06993 0.77737,-0.98818 0.64774,-1.47342 -0.25035,-4.9058 -1.62506,-3.96802 -4.46441,-6.37922 -7.55412,-9.78736 -2.77127,0.18449 -6.24527,-2.49237 -7.34762,-5.57108 -0.81692,-2.56046 -0.77083,-5.81934 1.24953,-5.178 -0.68743,2.16516 -0.94433,4.293 0.3776,6.05423 2.14554,2.65055 6.0477,2.51438 7.82856,-0.33375 2.63955,-0.43707 3.5531,1.12421 4.07134,-0.1274 -0.54025,-0.53371 -2.93152,-0.44362 -4.73885,-0.99918 -0.98817,-0.25258 -2.4045,-2.14554 -2.67032,-3.00408 1.68869,0.0461 3.29397,1.30439 5.14961,0.70705 -0.65011,-0.51378 -1.30662,-0.62588 -2.02036,-0.82999 -2.01144,-0.5798 -3.65404,-1.07173 -5.55353,-1.89072 -1.06727,-0.46116 -2.25094,-0.64789 -3.42138,-0.61711 -1.81594,0.1998 -2.29464,1.17044 -2.50545,2.58469 -1.5592,-0.81261 -3.36206,-1.79632 -3.96594,-2.54292 0.45016,-1.748 1.45156,-3.2852 2.5056,-3.17325 0.5401,0.39753 -0.39753,1.89072 -0.18226,2.43097 0.1888,0.47647 0.78391,0.3843 1.03426,-0.0746 0.36676,-1.11113 0.95309,-1.40979 2.1937,-2.08622 3.68273,-1.51742 8.22832,0.53148 11.75064,1.71723 4.64371,1.56158 8.3978,3.05611 13.22406,2.98192 v 84.41468 z m -28.85055,-19.99173 c 0.80815,-0.2218 2.06422,-0.18672 3.00854,0 0.23712,0.96841 -1.81832,3.13357 -2.47275,4.74108 -0.19534,0.79714 0.16041,1.37248 0.50948,1.4251 0.99264,-2.10361 2.04013,-3.46731 3.49155,-5.04628 0.15164,1.10904 0.26804,2.06198 0.57325,3.13148 0.29421,0.99472 -0.13395,1.94127 -0.70051,2.96007 -2.59569,4.98042 -5.94452,3.24788 -8.76634,5.45481 -0.89585,-5.10114 0.78406,-9.01876 4.35678,-12.66626 z m -3.03261,13.16028 c 0.85868,-0.4567 1.71723,-0.68074 2.57369,-0.79922 0.17126,0.24366 0.10317,0.72905 0,1.24729 -0.28321,1.79841 -0.45016,2.0993 -0.56003,3.82307 -0.0658,0.93332 0.19996,1.48011 0.6128,1.7327 0.28098,-1.73701 0.41939,-3.5311 0.9574,-5.19124 0.36007,-1.09804 0.97495,-2.69232 1.64261,-2.57369 -0.11418,0.61919 0.863,5.6634 1.36355,6.37922 -1.18798,2.65932 -2.0993,4.73885 -4.57636,6.86461 -1.82694,-3.54656 -2.57354,-9.77428 -2.35188,-10.70314 0.0858,-0.35784 0.055,-0.49193 0.33822,-0.7796 z m 8.67401,-6.06509 c 1.79855,2.24856 4.94311,3.99002 5.37142,7.02041 0.59942,1.61183 1.01226,0.83669 1.3417,-0.52925 0.71805,-5.53822 0.88932,-7.5168 4.91888,-8.19962 0.45685,2.48583 0.49417,4.04265 -0.39084,6.60757 -1.71069,4.76739 -3.61449,7.53211 -6.95678,11.15107 -4.66868,-3.37307 -7.46626,-10.791 -4.28438,-16.05018 z m 4.1262,23.25077 c 0.16695,1.0078 0.95963,6.72828 2.33434,6.37475 1.02772,-0.49624 -0.53802,-4.35901 -0.70928,-5.14292 -0.34699,-2.07729 -0.19104,-2.90521 0.14718,-2.93152 1.11989,2.59777 2.9843,3.49155 5.21309,5.23078 0.87623,0.61473 1.36816,0.79699 0.71151,3.20165 -1.18144,2.59123 -3.33783,6.48239 -5.74234,8.93744 -1.75901,-2.17839 -4.95189,-5.30749 -5.82589,-7.78677 -0.37776,-1.09135 -0.24158,-1.55697 0.30075,-2.13454 1.26707,-1.81817 2.43097,-4.07996 3.57064,-5.74887 z m -9.1988,-5.16269 c 1.23199,-1.33517 2.48137,-3.002 3.41246,-4.86418 0.16918,0.75329 -0.14495,7.68153 1.20998,7.22483 -0.0373,-1.90619 0.0373,-3.35775 0.72251,-5.1123 0.21304,-0.52255 0.52925,-0.73336 0.88501,-0.33375 0.59942,0.6742 1.98735,1.76778 2.34088,2.26402 0.38638,0.54248 0.27012,1.24299 0.0549,2.05767 -0.53579,2.01798 -2.55615,7.04896 -4.84203,9.70382 -2.30148,-3.0347 -3.88685,-6.30236 -4.02525,-9.79822 -0.0176,-0.46116 -0.11418,-0.81037 0.24158,-1.14189 z m 17.92559,-1.52189 c 0.74437,-3.0897 0.63896,-6.66911 0.63896,-9.80936 0.79715,1.80732 1.77655,3.63649 4.04726,5.58653 1.83572,1.28685 -2.66378,11.08967 -4.14389,12.45545 -5.0726,-1.57005 -7.08196,-5.26155 -7.96027,-8.23916 0.97717,-0.68951 5.17146,-4.44464 6.2365,-6.72397 0.66319,2.42428 -0.18881,4.4094 1.18144,6.73051 z m 10.35616,18.22024 c -3.38852,-1.80866 -6.30013,-7.83227 -6.87561,-9.41882 -0.50502,-1.39448 0.3953,-2.46829 0.99695,-3.68704 1.1859,-2.40674 2.79772,-6.86446 2.98876,-7.25768 0.40838,0.22181 0.42592,1.22975 0.52048,2.39588 0.32052,0.7356 0.74659,1.05627 1.27792,0.95964 0.14718,-0.77083 -0.0198,-1.65584 -0.34475,-2.4222 0.16249,-0.64551 0.44361,-0.80592 0.92009,-0.7136 0.15817,-0.0297 0.33405,-0.0547 0.51616,-0.0777 z m -34.90032,71.79629 c -0.81692,-1.97635 -1.17922,-3.94825 -1.28908,-5.91806 0.93986,-0.9794 2.25748,-1.20344 3.00854,-1.43402 0.004,0.30967 -0.31413,1.97858 0.31398,3.2238 0.63465,-0.94001 0.61696,-1.46911 1.93904,-2.73618 0.21303,-0.011 0.42384,-0.0659 0.63242,-0.0748 0.40838,0.83238 0.44139,1.47788 0.80814,2.0269 -0.14718,0.70051 -1.82709,2.77572 -5.41304,4.91234 z m -9.57656,0 c 0.59718,-1.47565 1.30215,-2.92053 1.87749,-4.65976 1.73254,0.0812 3.4016,-0.21081 5.00674,-0.78391 -0.0351,0.4787 0.0198,1.05181 0.0638,1.53497 -2.09722,1.64914 -4.31947,2.9513 -6.94801,3.9087 z m 16.02164,-3.66058 c 0.14494,0.85854 0.35352,1.55474 0.81245,2.09707 0.52271,0.86523 -0.11417,4.04711 0.53148,6.63626 -1.96981,-1.10904 -3.62773,-3.2128 -4.41164,-5.4789 1.27361,-0.77083 2.3892,-2.01159 3.06771,-3.25443 z m -17.26017,-3.35329 c 1.90172,-2.32334 2.76903,-5.17146 4.7213,-7.29276 1.9215,-2.10153 2.30357,-2.1103 5.36681,-2.47706 0.0638,3.72882 0.33391,5.16715 2.05991,8.84319 -6.0147,1.2253 -7.51027,1.726 -12.14802,0.92663 z m 12.28851,-10.40447 c 1.75023,-0.47424 3.12702,-1.13521 4.74554,-2.07076 -0.46562,1.71723 -0.91355,5.75557 -0.44362,6.01261 1.55905,-1.87095 1.64914,-3.08762 2.57146,-4.79593 0.95309,2.17824 1.759,3.54863 2.49683,4.7937 -1.80509,3.07217 -5.30987,5.50299 -7.69253,5.73357 -1.59636,-1.87303 -2.60877,-5.8632 -1.67768,-9.67319 z m 4.35023,10.18266 c 2.20694,-1.26261 4.32155,-3.05893 5.58862,-4.91665 1.40102,1.52397 2.98,2.567 4.69277,3.46732 -1.66015,7.31476 0.72474,7.6332 2.25525,10.22443 -7.06873,0.20204 -9.09563,-2.44628 -12.53664,-8.7751 z m -14.17492,-11.41019 c 5.97084,1.12659 12.14579,-1.06934 14.95661,-2.03344 -1.11113,-2.24424 -1.81595,-3.64958 -1.68646,-8.87381 l -3.05239,0.28543 c -0.63674,-0.0549 -1.37025,0.59734 -2.07299,1.48011 -2.72072,3.42569 -4.75862,6.14864 -8.14477,9.14171 z m 14.4559,-11.04343 c 2.23563,-0.73559 3.35329,-0.86523 5.17162,-2.50991 -0.46339,1.71723 -0.88278,3.78367 -0.14941,5.53376 1.17044,-2.01813 2.05767,-3.66935 2.97999,-5.37781 0.2502,1.91926 0.82777,3.1511 1.54151,4.84648 -1.80732,3.07201 -5.547,5.40635 -7.65507,5.90928 -1.40102,-2.26848 -2.40897,-5.22854 -1.88864,-8.4018 z m 3.54433,10.08603 c 2.6834,-1.81817 4.70599,-3.12256 6.72843,-6.01246 1.73923,2.04221 2.9623,2.90521 4.66645,4.02302 -1.12212,5.00898 -1.70192,6.86892 0.50056,12.43346 -6.15742,0.46993 -10.77763,-6.30236 -11.89544,-10.44402 z m -2.33211,-25.34129 c 0.6962,-0.3623 2.94922,-0.57088 3.42792,-0.0351 0.009,2.44629 -0.0175,5.78634 2.93375,9.03854 -3.70681,4.78062 -10.02671,4.86402 -15.43307,5.09014 0.97049,-0.91563 3.35091,-5.39327 4.4775,-7.74069 1.20344,-2.51868 2.11253,-4.71253 4.5939,-6.3529 z m 8.21954,8.8805 c 2.29257,-0.5227 7.12359,-4.348 8.22163,-5.84788 2.00267,0.25466 3.0787,2.90967 2.8899,6.00814 0.12072,2.54069 -0.80814,3.19288 -1.58997,6.10479 -0.75314,2.11907 -0.20635,6.6361 -0.2569,7.12804 -4.31277,0.6565 -10.51865,-6.87561 -9.26466,-13.39309 z m 4.32155,-12.70803 c 1.23422,2.1103 3.2742,4.16797 3.49824,4.5105 -0.69397,2.87443 -7.67276,7.01386 -8.87174,7.06872 -1.65792,-1.19675 -3.08748,-7.83955 -2.42205,-9.36129 1.47342,-0.45462 3.35091,-1.9545 5.01982,-3.23688 -0.23043,1.9435 -0.43246,4.09111 -0.61919,6.03446 -0.15803,1.38571 0.1955,1.6866 0.35353,1.5372 0.54679,-1.93904 3.15348,-7.04018 3.04139,-6.55271 z m -12.58941,-11.42119 c 0.52702,0.22835 2.08845,1.76123 2.79104,1.95227 0.34921,-0.12087 0.63688,-0.36676 0.90924,-0.62588 0.69605,0.76636 -0.89155,6.11578 1.06057,7.25098 0.4063,-0.39307 0.0856,-2.62408 0.7796,-3.42999 1.21653,2.16961 3.22797,3.58817 3.5531,4.11296 -1.39017,1.43402 -2.93168,2.61978 -5.35819,3.60141 -3.10071,-2.71641 -4.53027,-7.85932 -3.73536,-12.86175 z m 9.065,-7.64629 c 0.56642,1.60082 0.819,6.91292 1.13521,9.18125 0.13618,0.53148 0.35145,0.79715 0.6018,0.92886 0.21735,-0.63673 0.48524,-2.76026 0.43915,-3.37068 -0.0242,-1.18367 -0.0285,-3.04139 -0.0528,-4.22729 1.16613,2.20916 3.23242,4.17674 4.26461,6.20364 0.34906,0.66974 0.31844,1.32416 0.004,1.94112 -0.7136,1.40102 -3.40146,4.47764 -4.75193,5.13415 -3.05909,-1.87095 -4.23384,-5.51176 -4.4381,-8.9419 -0.0351,-0.59511 0.0351,-1.1419 0.41284,-1.6316 0.9684,-1.26262 2.43751,-5.45467 2.38488,-5.21755 z m 9.0494,-9.08031 c 0.23504,3.10516 0.83892,8.22162 1.66237,8.50943 0.87846,-2.72517 -0.84754,-8.1009 -0.52479,-11.09843 -0.27443,-0.18227 2.99085,6.02138 5.78635,8.25893 -0.66974,4.58528 -2.44406,8.28094 -5.89829,11.33125 -2.47706,-1.75677 -4.65991,-4.30415 -6.32882,-6.28273 -0.63897,-0.73114 -0.52048,-1.68423 0.20857,-2.41551 3.79245,-4.90803 3.6585,-6.23219 5.09461,-8.30294 z m 9.51739,26.17619 c -3.49586,-2.56759 -4.655,-4.95114 -6.35082,-8.6019 -0.22389,-0.4854 -0.25244,-0.78183 0.33821,-1.66015 2.10376,-2.34534 4.64013,-8.17999 4.70376,-9.20102 0.18881,1.50196 0.55333,2.60654 0.54902,4.13719 0.33539,0.3015 0.57801,0.36364 0.75983,0.18375 z m -9.69073,6.01216 c 2.72726,-2.27725 3.88015,-4.51049 5.04837,-7.07318 0.23726,-0.52048 0.2218,-1.04526 -0.15581,-1.58551 -1.75023,-2.4946 -2.18062,-4.24261 -2.79103,-5.50745 -0.27236,0.63911 -0.39531,1.5152 -0.2395,3.29829 0.14286,1.68214 0.60402,3.55086 -0.65428,5.00688 -0.74451,-0.36021 -1.52411,-5.07705 -1.51965,-5.75779 -0.6632,0.59287 -2.14762,2.53414 -4.63345,3.81876 -0.78391,2.81304 2.63732,6.43853 4.94535,7.8 z m 7.1939,-6.15963 c 0.8236,0.79075 1.6701,1.52604 2.49683,2.04206 v 12.49396 c -3.05536,-1.54181 -6.70108,-4.70466 -7.49272,-7.80105 -0.15803,-0.60388 -0.0856,-1.26261 0.44362,-1.69092 1.08926,-1.22529 2.29048,-2.46605 3.26765,-3.83853 0.51602,1.02341 1.1419,5.65894 2.04876,5.93783 0.44793,-0.93317 -0.68728,-5.81265 -0.76414,-7.14335 z m -3.97471,13.57534 c 1.88924,1.06891 5.16879,2.4946 6.47154,2.88663 v 8.54735 c -0.3012,-0.004 -0.66884,-0.21393 -1.14413,-0.62766 -3.78798,-2.30134 -5.63708,-8.16023 -5.32741,-10.80632 z m 1.41856,11.34434 c 0.94863,0.9794 1.87764,2.05975 3.16434,2.67686 0.27458,0.12071 -1.26707,0.33152 -1.20553,0.54233 0.6742,0.38876 1.8161,0.29644 2.53192,0.20649 0.18568,0.15045 0.38608,0.26359 0.56225,0.38326 v 0.91593 c -0.23504,0.12056 -0.45878,0.22894 -0.5117,0.4005 0.34698,0.46547 -0.0615,1.12644 -0.54025,1.64037 -1.704,1.87526 -3.91971,3.8143 -6.14418,5.13846 -0.22627,-2.22448 0.49178,-3.77476 1.02326,-5.85443 0.54025,-2.10153 0.84977,-4.01856 1.11989,-6.04977 z m 5.05298,18.13133 c -2.17051,-1.67412 -2.92855,-7.18736 -2.45074,-8.01453 0.4173,-0.25704 0.72459,-0.12087 1.14189,-0.37553 0.0528,0.29867 0.14272,0.81023 0.45016,0.88709 0.35799,-0.095 0.61845,-0.25437 0.85869,-0.42117 z m -3.47192,-1.41797 c 0.70497,1.62283 2.02035,3.20165 2.82627,3.6805 0.54233,0.49625 0.67419,1.01003 -0.54025,2.22671 -2.56492,1.65345 -4.98697,3.13356 -8.07014,4.3874 -0.83669,0.57102 -1.49973,0.0616 -0.84754,-0.57087 0,0 6.45831,-9.72374 6.63166,-9.72374 z m 2.93821,8.31172 c 0.0418,1.96981 -0.26343,4.37432 -0.81468,6.58125 -0.41939,1.759 -1.02103,3.57718 -2.13231,5.45482 -0.30744,0.58633 0.24382,0.57087 0.76429,0.28766 1.07158,-1.44279 1.66446,-2.23993 2.50114,-3.70027 0.0794,-0.13989 0.1506,-0.27681 0.21527,-0.41046 v 9.00449 c -4.87859,5.31715 -12.78594,8.81747 -20.62446,6.4088 4.22937,-0.93986 8.72887,-4.94965 11.51114,-7.96696 2.83058,-3.66281 5.7074,-8.80142 6.50009,-13.40631 0.0505,-1.15721 1.24284,-2.0883 2.07952,-2.25302 z m -5.38376,35.32786 c -0.84545,10.85151 -3.27152,16.91838 -9.2434,23.2866 -7.71007,8.10521 -15.99532,10.97534 -25.11964,6.75474 -2.14108,-1.04749 -1.88196,1.03649 0.0528,2.18716 8.86728,4.48195 16.39717,2.545 23.32318,-3.23465 5.48559,-4.40733 8.96168,-11.10498 11.41466,-18.7425 -2.03345,11.14452 -3.30498,17.4952 -16.99674,29.20614 -12.40714,8.5906 -24.68257,-2.30134 -24.54416,-15.42653 4.43795,1.89518 8.73764,3.22142 13.37986,3.09417 6.71312,0.0394 12.53232,-3.20403 17.22508,-8.82119 3.60498,-4.17526 5.847,-10.52786 7.15837,-18.73462 0.97792,0.24024 2.1057,0.36705 3.35002,0.43068 z m -3.09253,32.76652 c -1.74577,5.7578 -3.70681,12.495 -5.45259,18.24833 -0.96186,3.96802 -3.17534,6.08055 -6.7482,7.00064 -1.69092,0.32944 -3.65181,0.60611 -5.28787,0.23058 -0.83,-0.93986 -1.05627,-2.9953 -0.87178,-6.54394 0.34476,-3.60795 2.31234,-6.14863 5.12315,-8.01081 4.72354,-4.20529 8.46767,-8.15131 11.88667,-13.37108 -1.87972,5.32949 -7.45957,12.51031 -11.2981,19.25851 -1.0475,1.94781 -0.85646,3.68035 1.04749,0.87177 4.91442,-5.72048 8.86282,-12.10847 11.60123,-17.684 z m 9.01,-43.29423 c -1.72437,-0.0189 -3.35849,-0.047 -4.85317,-0.0104 -0.0489,-0.18672 -0.098,-0.37463 -0.14703,-0.56403 3.02191,-1.5314 3.87139,-2.60982 5.0002,-4.01812 z m 0,86.37721 c -2.66497,-3.29814 -5.27033,-7.0445 -7.7627,-11.34493 -5.34064,-10.84586 -2.58246,-14.11337 1.01672,-27.23856 3.14353,-13.39754 4.02927,-23.19397 4.12442,-35.91657 0.74362,1.62981 1.59428,3.13504 2.46026,4.62288 0.0471,3.39789 0.0951,6.79563 0.1613,10.19248 z m 0,-72.23144 c -0.54679,-1.15423 -1.05463,-2.3385 -1.53556,-3.57138 0.50293,-0.005 1.01508,-0.012 1.53556,-0.0177 z" style="fill:#ffffff"/><path d="m 154.34709,261.60675 c -6.5377,0.0571 -11.67378,0.38727 -11.67378,-4.22462 0,-4.61604 5.13608,-4.28601 11.67378,-4.22892 z" style="fill:#fff500"/><path d="m 154.34709,22.36844 c -2.36259,2.07804 -3.24343,5.06428 -3.32475,8.27053 -0.22835,-0.22403 -2.36065,-1.31538 -3.99448,0.0789 3.88031,4.67744 3.65627,10.59327 1.16613,13.10556 -4.58736,-1.68214 -9.05177,-2.86136 -13.336,-3.16879 0.51824,-6.54171 2.98638,-9.55902 5.61285,-10.67237 -0.39307,-0.70274 -3.82322,-0.65873 -7.6903,1.05627 0.13395,-2.45283 -1.51519,-8.66524 -4.75639,-8.45875 2.48137,8.00413 3.85607,17.22285 3.15333,20.89889 10.6859,-0.45938 11.14855,3.91286 23.16961,5.64481 v -26.7551 z" style="fill:#fff500"/><path d="M 2.41432,2.77201 H 154.3456 v 16.71634 c -0.0581,0.0287 -0.11387,0.0581 -0.16769,0.0874 -2.64832,1.2977 -4.81348,6.4363 -5.70071,8.34011 -0.56434,0.004 -4.48627,0.67642 -5.07037,2.41342 0.49624,0.852 6.55925,4.08012 3.8583,10.60651 -3.05462,-1.2079 -8.19531,-2.03567 -9.33513,-2.21793 -0.49178,-2.48806 3.29844,-7.87033 4.75877,-8.50275 -1.70192,-3.01062 -5.69194,-2.69441 -7.41794,-2.07299 -3.55756,-6.063 -3.47401,-6.35944 -10.13658,-9.62056 2.31456,8.42812 4.04934,16.7266 3.73536,24.55739 -6.30905,0.15372 -7.01179,5.31418 -7.34109,5.16715 -4.02956,-2.29257 -12.58063,-4.30415 -13.61058,3.81653 -0.34907,2.75372 -0.23712,9.74558 1.27807,11.60345 0.41938,0.42815 0.77514,0.0263 1.13313,-0.70274 0.50798,-2.21199 1.88224,-5.10843 4.66972,-4.53726 2.12382,0.43529 4.51748,2.2835 6.23665,3.33159 1.45885,0.88946 3.42583,2.00043 5.06397,2.60149 2.32141,0.85185 4.30445,1.46836 6.32511,3.63946 0.70928,0.84769 1.58551,2.8679 -1.37248,0.7576 -13.00879,-7.71438 -15.22226,0.91355 -14.05405,0.62588 4.15697,-1.40979 19.50233,8.48298 20.70786,9.61387 6.52194,5.53391 4.38755,17.06704 -1.5482,22.23405 -2.53415,2.20916 -6.49785,3.18202 -9.74559,3.87361 -5.45259,1.16836 -9.83123,1.3704 -14.48013,6.87784 -0.51602,1.19229 -0.22181,3.28297 1.01895,2.9513 2.11253,-1.7984 8.7091,-1.85118 9.1988,-0.48524 -0.83669,1.24061 -1.44488,2.64609 -1.7984,4.79816 C 107.02639,116.24816 91.72503,107.71032 85.06692,95.18024 91.6174,91.01004 96.5122,83.73705 96.83495,75.86018 97.0743,70.10684 95.03432,64.28973 91.37359,59.35539 81.10529,45.51646 60.83674,44.28462 49.17842,57.18577 c -5.88298,6.51316 -7.50358,12.31497 -9.28012,20.84626 -1.12436,5.39981 -1.4098,11.10929 -2.67687,16.43001 -2.76041,11.5816 -8.21731,22.29336 -19.08503,28.89885 2.56655,2.4836 12.64828,1.80241 16.04141,0.45238 -1.41782,7.28385 -4.57323,23.7711 -9.58325,36.93182 -5.16269,13.56182 -10.75324,19.66571 -20.38273,27.10654 1.87259,4.29463 11.43101,5.59025 17.09084,5.06695 13.73562,-1.2702 20.86217,-14.34127 25.21747,-25.78848 2.28424,-6.0025 4.79311,-13.86361 7.86052,-22.24921 -2.53222,11.71808 -4.16709,23.85524 -6.43586,35.77416 -1.92492,10.11279 -6.20722,25.82862 -7.79184,28.82452 -4.60371,12.08929 -17.92649,13.41969 -20.11275,15.47275 6.54022,7.21606 13.08966,10.10536 20.57599,9.57032 11.71927,-0.83699 17.34892,-6.06286 21.76427,-16.82145 4.95531,-10.81672 15.58992,-64.18999 16.39212,-63.42883 0.0999,0.0855 -0.62098,4.58156 -1.71679,11.60628 -2.24395,14.38423 -6.34577,39.37319 -10.18579,58.81679 -1.75142,8.86876 -3.82783,19.54841 -10.80022,25.88035 -4.38607,3.98333 -9.5443,6.20424 -18.02267,8.11072 0.89808,3.71009 8.98457,6.41728 12.72856,7.0769 12.64218,2.22775 26.0824,-4.31887 33.17357,-14.80406 10.0065,-14.79633 12.90964,-45.19789 16.57304,-62.135 0.95651,-4.42204 1.75217,-19.3935 2.31844,-24.6665 -0.51424,11.07391 -1.40415,23.10641 0.3617,34.09246 0.73574,4.57651 2.09231,8.16245 3.34526,9.87433 6.70822,-7.0604 11.60361,-16.42317 11.69325,-26.32218 0.41537,0.88797 1.09671,1.77669 1.89965,2.66527 0.70616,-0.34164 4.64905,-6.38041 5.07052,-7.24014 -0.18241,0.49714 1.36162,3.04912 2.53637,4.47972 -1.40652,0.19654 -2.89109,1.21876 -3.95791,2.37924 -1.38823,1.50999 -2.88143,5.02086 -3.92788,6.92288 -1.35047,2.60878 -2.79312,5.67648 -4.46426,7.76047 0.91562,0.30089 2.08398,0.20872 2.81512,0.14063 -3.13624,3.91673 -5.38049,7.08493 -10.03103,11.19716 0.81959,1.71827 3.04526,1.53437 4.80917,1.51296 -0.36379,0.46859 -1.72511,2.20158 -2.89778,4.32422 -1.53616,2.78048 -3.47892,5.69075 -4.17764,6.39423 1.51073,1.03218 2.93153,1.21222 4.26015,0.95963 -0.64893,2.73826 -1.40117,4.77245 -3.09194,7.00956 1.69315,0.27667 3.93962,-0.45685 6.73274,-2.19608 -0.0922,1.1639 -0.27443,2.2444 -0.57741,3.28743 -3.06889,7.83821 -7.39877,17.44777 -10.47361,24.56615 -1.86901,4.32675 -5.91821,7.14336 -11.29409,5.0729 -1.07529,-0.41403 -2.73201,-1.44815 -3.47489,-1.38377 -2.49669,-3.54804 -6.78998,-1.57779 -9.88653,-0.19951 -4.5157,2.01025 -8.40047,4.76055 -5.04599,10.5842 0.28558,-0.57087 0.57533,-1.15289 0.874,-1.73254 2.61428,-2.95903 3.76807,-1.36147 5.01893,0.37285 1.53215,2.12428 5.22097,1.86501 6.24201,-0.30268 1.05834,-0.22389 2.48137,0.0856 3.78144,0.56225 -2.5056,3.52009 -9.38775,-0.24381 -10.59997,6.73051 -2.3892,0.77737 -3.34883,1.19691 -4.53027,3.25443 -1.17044,2.04444 -0.36453,7.00079 2.2334,7.47503 -0.29644,-5.3515 3.63426,-5.78634 4.12843,-3.34214 4.5209,2.68073 8.65141,-0.32216 9.80699,-5.05729 2.37611,-1.38348 3.74413,-3.90662 6.04546,-4.74554 -1.05834,5.71603 -8.07444,5.50522 -7.78901,13.75553 -1.8314,2.79327 0.7796,7.31031 2.89436,8.8365 1.01003,-3.76167 0.14926,-2.47274 2.19802,-6.78328 8.55255,1.5363 10.52013,-6.89048 10.27707,-11.10275 1.26945,-0.52122 2.56551,-6.73557 4.94638,-7.98837 2.0834,-1.0964 4.72101,-2.23741 7.07438,-2.96066 0.51557,1.31301 2.23548,1.44918 3.42465,1.44666 3.3463,-0.008 4.32824,-2.48122 6.99945,-4.49251 1.39225,0.88931 -0.12517,2.09721 0.37553,2.53191 1.42525,0.0396 3.50924,-3.16656 3.57733,-4.10419 0.48747,-3.12926 -1.80732,-4.84425 -4.35247,-4.83325 -0.92232,0.002 -1.46465,-1.20999 -2.7845,-1.36817 -4.0984,-0.50204 -5.27493,2.48048 -7.59366,3.36935 -1.8433,0.7069 -2.5563,-0.54664 -2.31353,-2.27874 1.33516,-9.52898 5.85993,-17.36185 8.85762,-26.28472 2.08413,2.68742 4.14225,3.55978 6.51049,4.76516 0.94016,-1.46747 0.15565,-5.24699 0.22879,-7.01387 3.27762,3.24551 8.2588,3.14129 12.52355,2.73172 0.25689,-0.26997 0.19981,-0.71136 -0.17349,-1.33293 -3.18693,-3.4972 -4.0208,-4.07045 -4.02689,-9.89916 1.83571,1.10206 5.7413,1.06519 7.83034,0.82554 -3.31806,-4.85094 -3.39328,-9.58161 -2.91191,-13.71807 1.19468,0.14049 2.79327,0.21289 3.98795,0.004 0.85646,0.0659 0.9794,-0.31175 0.85423,-1.02118 -1.21296,-2.65738 -1.16227,-5.81324 -0.11463,-8.56578 0.45968,0.93808 1.00944,1.90083 1.60782,2.89585 -0.6742,4.77839 -2.24425,10.56696 -4.90788,14.87988 -0.6522,1.65137 -0.24604,2.82389 1.41856,2.70318 1.1529,-0.64342 2.49014,-2.28379 3.68258,-2.89867 -0.54902,5.40204 -7.42894,15.01591 -6.92824,16.50256 3.50701,0.52702 5.93352,-1.06712 6.29582,-1.15944 0.0418,3.00853 -1.30662,7.34985 -5.20447,12.17433 -3.71335,4.01202 -7.75392,7.33231 -11.77472,7.29068 0.84011,3.24848 8.55107,3.39536 13.28278,2.72518 -1.85251,0.71805 -2.94862,2.05009 -2.94862,4.49503 0,2.46457 1.11543,3.79721 2.99724,4.5108 -0.88887,6.52074 -2.36378,10.41517 -5.06131,15.27697 -4.64668,6.88215 -9.27135,10.00263 -17.47335,10.91825 -5.7972,0.15818 -11.16862,-1.49973 -16.71338,-3.86484 0.0155,10.71191 4.08889,19.01693 13.78185,21.72903 9.75436,3.13133 18.51624,-4.98266 23.47259,-12.81121 l 1.59859,-1.19021 c -4.14805,6.15294 -6.66465,8.36657 -12.3566,13.32276 -3.21265,2.19816 -5.44813,5.19347 -5.74679,9.44707 -0.2175,4.18552 0.0505,6.6098 1.02772,7.71438 1.93027,0.44792 4.2426,0.12071 6.2365,-0.2679 4.21406,-1.08481 6.82284,-3.57718 7.95804,-8.25685 2.05768,-6.7876 3.57733,-12.18533 5.70517,-17.65769 -4.01425,16.20835 -7.14558,19.93925 -1.0848,32.24767 2.86195,4.93702 5.85502,9.23002 8.91633,13.00106 v 15.70215 C 70.17127,357.63633 3.65716,290.99009 2.41432,207.46815 V 2.77127 Z" style="fill:#da251d"/></svg>